<?xml version="1.0" encoding="UTF-8"?>
<svg version="1.1" xmlns="http://www.w3.org/2000/svg" width="1920" height="1920">
<path d="M0 0 C2.92736202 0.00096941 5.85206856 -0.04072811 8.77905273 -0.08496094 C40.26591635 -0.28479172 70.26984769 13.25691367 92.74414062 35.18823242 C93.40986084 35.84831299 94.07558105 36.50839355 94.76147461 37.18847656 C95.71461548 38.13315796 95.71461548 38.13315796 96.68701172 39.09692383 C100.21209093 42.67766467 103.0685619 46.2354449 105.76147461 50.50097656 C106.87961148 52.08342159 108.00247383 53.66253264 109.12866211 55.23925781 C112.6421817 60.24775287 115.80588582 65.40538579 118.88647461 70.68847656 C119.44069092 71.63190918 119.99490723 72.5753418 120.56591797 73.54736328 C125.11445007 81.32009821 129.53943378 89.16062464 133.94433594 97.01538086 C137.54439634 103.41337053 141.26524988 109.72526437 145.07397461 116.00097656 C148.75051396 122.05973934 152.22282414 128.14515696 155.48022461 134.43969727 C159.35014511 141.80015343 163.74780988 148.85143591 168.05712891 155.9597168 C172.4679981 163.26479099 176.64362349 170.65843173 180.68945312 178.17016602 C184.5741087 185.31380442 188.86376713 192.17248675 193.19628906 199.05078125 C196.91686968 205.0050528 200.13529444 211.00050178 203.17163086 217.33300781 C205.36456746 221.70271686 207.94201634 225.78281889 210.54272461 229.91894531 C213.12992997 234.05636476 215.57233534 238.27506618 218.01147461 242.50097656 C218.70297607 243.69871704 218.70297607 243.69871704 219.40844727 244.9206543 C221.8892251 249.22733568 224.35654312 253.54155458 226.81616211 257.86035156 C227.83958413 259.65723538 228.8630216 261.4541104 229.88647461 263.25097656 C230.39202881 264.13906006 230.89758301 265.02714355 231.41845703 265.94213867 C234.32028407 271.02516686 237.28059489 276.0641285 240.32397461 281.06347656 C244.27380344 287.55388534 247.90327687 294.20113419 251.52856445 300.87695312 C254.67439228 306.62913603 257.98983853 312.24475975 261.44897461 317.81347656 C265.01178432 323.54909316 268.31523137 329.31388819 271.41577148 335.31323242 C275.4136488 342.92542317 279.9363055 350.23536768 284.39526367 357.58325195 C287.97788869 363.49234759 291.453015 369.4343725 294.76147461 375.50097656 C299.53570024 384.14573913 304.44796513 392.68445585 309.57397461 401.12597656 C313.88503753 408.2303164 317.95306423 415.43114865 321.88647461 422.75097656 C325.68028007 429.81032835 329.65070456 436.65930385 333.98168945 443.40014648 C337.42354042 448.81782437 340.48117479 454.40721457 343.51147461 460.06347656 C348.31587754 469.02830463 353.47863649 477.71448706 358.81982422 486.3684082 C362.77840744 492.80849135 366.42420992 499.32781214 369.90991211 506.03222656 C372.92791172 511.68620051 376.27045892 517.1384611 379.60717773 522.60839844 C381.56402252 525.81682923 383.50798196 529.03293891 385.44897461 532.25097656 C385.79307373 532.81623047 386.13717285 533.38148438 386.49169922 533.96386719 C388.59856625 537.45453446 390.58300213 540.99473236 392.51928711 544.58300781 C395.81770299 550.6681509 399.32513906 556.62432641 402.84970093 562.58001709 C408.18842379 571.60579497 413.4670202 580.64683007 418.44897461 589.87597656 C422.94021193 598.19199842 427.82038778 606.23563266 432.77734375 614.28100586 C435.98274959 619.50598988 439.07009503 624.74387744 441.88647461 630.18847656 C444.90085349 635.99870792 448.17424821 641.59551662 451.57397461 647.18847656 C455.53705453 653.70917938 459.33066731 660.28312307 462.94897461 667.00097656 C468.19195435 676.72069967 473.92734527 686.12635329 479.74853516 695.50683594 C482.97412193 700.74235309 486.05816194 705.94968953 488.74975586 711.48144531 C491.79406841 717.73510175 495.36092438 723.61187896 499.02163696 729.5144043 C509.11312827 745.79957568 509.11312827 745.79957568 513.07397461 753.50097656 C517.41628815 761.92094796 522.36326793 769.967788 527.28051758 778.0612793 C528.84602614 780.64026497 530.40758744 783.2215392 531.96459961 785.80566406 C532.43800781 786.59054199 532.91141602 787.37541992 533.39916992 788.18408203 C534.78116391 790.5344625 536.09361359 792.91307231 537.38647461 795.31347656 C540.45013457 800.98571703 543.6301628 806.58886702 546.82397461 812.18847656 C547.3307373 813.07962158 547.8375 813.9707666 548.35961914 814.88891602 C550.59054181 818.79248584 552.84116349 822.66603673 555.25756836 826.45800781 C557.15369348 829.45426097 558.87984841 832.50858174 560.56225586 835.62988281 C563.83892611 841.70526662 567.33648807 847.64347935 570.85134888 853.58276367 C576.78482148 863.61425371 582.58898737 873.69318303 588.14648438 883.93920898 C591.19047684 889.52934195 594.43473319 894.93524328 597.81616211 900.32910156 C601.20601223 905.85632707 604.31393708 911.54198803 607.47387695 917.20263672 C615.99849814 932.4330099 615.99849814 932.4330099 625.01147461 947.37597656 C627.70217482 951.68219964 630.16495435 956.06294965 632.51147461 960.56347656 C637.84718875 970.78721881 643.76027565 980.77220212 650.02563477 990.45458984 C652.51199177 994.3016496 654.64541828 998.20459959 656.65991211 1002.32128906 C659.56759339 1008.23870809 662.88817182 1013.79311605 666.38647461 1019.37597656 C671.20911703 1027.17410079 675.79675958 1035.04905198 680.13647461 1043.12597656 C683.82947253 1049.99872252 687.62432066 1056.71459528 691.77709961 1063.32128906 C698.14816388 1073.53004166 704.06768885 1083.99897845 709.86157227 1094.54296875 C713.56697232 1101.24247083 717.48807741 1107.80335301 721.47583008 1114.33813477 C723.95597127 1118.41835336 726.34178237 1122.5248645 728.60913086 1126.72753906 C731.8726523 1132.76837955 735.35390792 1138.67299353 738.84997559 1144.58056641 C744.21270877 1153.6465221 749.51011339 1162.72905525 754.51147461 1172.00097656 C758.73381077 1179.82398479 763.34289611 1187.35085808 768.07592773 1194.8737793 C771.68008831 1200.64182572 774.93573443 1206.4882991 778.02099609 1212.54541016 C782.44699842 1221.07169599 787.58156251 1229.19824897 792.6472168 1237.35473633 C796.53134333 1243.63729785 800.06186019 1249.97095094 803.29345703 1256.61352539 C805.76756673 1261.47986422 808.6790643 1266.0644723 811.57397461 1270.68847656 C816.24017046 1278.23655421 820.64621222 1285.83035363 824.71435547 1293.71508789 C827.44017157 1298.97415254 830.45544231 1303.99429217 833.60522461 1309.01269531 C839.54369232 1318.53154558 845.0470401 1328.3412588 850.43408203 1338.18017578 C854.51075442 1345.62496593 858.80778139 1352.87604472 863.32397461 1360.06347656 C867.64471245 1366.94280081 871.66403823 1373.8723706 875.36791992 1381.10083008 C878.80291766 1387.74334747 882.6612323 1394.11058866 886.6015625 1400.46411133 C902.94776332 1427.10489425 907.39799803 1462.29133096 900.59814453 1492.58691406 C900.02572459 1494.90459919 899.40756085 1497.20279766 898.76147461 1499.50097656 C898.54716797 1500.27473633 898.33286133 1501.04849609 898.11206055 1501.84570312 C893.52782476 1517.90721045 886.34001008 1531.54766782 875.76147461 1544.50097656 C875.28629395 1545.08298828 874.81111328 1545.665 874.3215332 1546.26464844 C872.79268708 1548.12465434 871.24964073 1549.97163198 869.69897461 1551.81347656 C868.99369629 1552.65761108 868.99369629 1552.65761108 868.27416992 1553.51879883 C851.16656289 1573.4532119 822.86842247 1589.00789274 796.76147461 1592.50097656 C793.12504909 1592.6472974 789.491361 1592.63697241 785.85239184 1592.62977773 C784.74396043 1592.63155274 783.63552902 1592.63332775 782.49350877 1592.63515655 C778.75149242 1592.63991563 775.0095143 1592.63751891 771.26749611 1592.63519764 C768.55712439 1592.63659554 765.84675474 1592.63949754 763.13638419 1592.64232561 C757.21051224 1592.64770226 751.28464822 1592.64934228 745.35877402 1592.64857487 C736.48735844 1592.64744028 727.61595211 1592.65201786 718.74453861 1592.65770571 C703.62616587 1592.66722211 688.50779499 1592.67192559 673.38941956 1592.67401505 C658.06295509 1592.67614257 642.73649347 1592.6804001 627.41003036 1592.68725777 C626.44287985 1592.68768838 625.47572933 1592.68811899 624.47927121 1592.68856266 C620.54035746 1592.69032098 616.60144371 1592.69209062 612.66252996 1592.69387568 C564.89325366 1592.71548182 517.12397679 1592.72635532 469.35469671 1592.73535192 C453.86564004 1592.73828536 438.37658351 1592.74165517 422.88752699 1592.74531913 C421.7950049 1592.74557742 420.7024828 1592.74583571 419.57685398 1592.74610183 C415.15699386 1592.74714804 410.73713375 1592.74819646 406.31727363 1592.74924765 C330.71431464 1592.76721271 255.11135542 1592.78259227 179.5083946 1592.79000668 C173.56914119 1592.79059066 167.62988779 1592.79118792 161.69063439 1592.7917843 C160.51246699 1592.79190242 159.33429959 1592.79202054 158.12043015 1592.79214224 C146.18380262 1592.79333963 134.2471751 1592.79454839 122.31054758 1592.79577477 C119.91720617 1592.79602 117.52386475 1592.79626386 115.13052334 1592.79650634 C38.25981174 1592.80429661 -38.61088461 1592.826681 -115.48158954 1592.85918277 C-170.71031398 1592.8825262 -225.93903538 1592.90407909 -281.16776466 1592.91118908 C-282.87122971 1592.91140961 -282.87122971 1592.91140961 -284.60910818 1592.9116346 C-309.53860585 1592.91481932 -334.46810348 1592.91687028 -359.39760133 1592.91786214 C-369.42809882 1592.91827689 -379.4585963 1592.91883179 -389.48909378 1592.91942406 C-390.58687685 1592.91948473 -391.68465991 1592.91954539 -392.81570913 1592.9196079 C-428.18685453 1592.92162441 -463.55798191 1592.93586668 -498.92912102 1592.95636906 C-534.55447019 1592.97694557 -570.17979853 1592.98484641 -605.80515305 1592.9752913 C-610.72779218 1592.97397283 -615.65043134 1592.97279479 -620.57307053 1592.97170067 C-621.53804608 1592.97148082 -622.50302163 1592.97126097 -623.49723887 1592.97103446 C-638.77841166 1592.96791983 -654.05954463 1592.97824783 -669.3407082 1592.99417622 C-684.36602567 1593.00955924 -699.39128804 1593.01068136 -714.41660742 1592.99662798 C-723.22571167 1592.98881692 -732.03464759 1592.99193348 -740.84373503 1593.01126514 C-746.69747157 1593.023016 -752.55108538 1593.02020084 -758.40481531 1593.0056505 C-761.7211763 1592.99781191 -765.03694152 1592.998284 -768.35332138 1593.01226954 C-797.86803136 1593.1286294 -823.5046537 1585.5211384 -847.23852539 1567.50097656 C-848.04547852 1566.90929688 -848.85243164 1566.31761719 -849.68383789 1565.70800781 C-876.13178019 1545.60259713 -891.83868207 1515.04677704 -896.87451172 1482.63305664 C-898.90375074 1465.17289069 -897.87824791 1447.43151958 -893.23852539 1430.50097656 C-893.02953613 1429.70014648 -892.82054687 1428.89931641 -892.60522461 1428.07421875 C-889.43609953 1416.13362014 -884.70620804 1405.98280553 -878.23852539 1395.50097656 C-877.0917038 1393.60852689 -875.94955388 1391.71332127 -874.80810547 1389.81762695 C-874.04980947 1388.55892428 -873.28920613 1387.30160892 -872.52636719 1386.0456543 C-870.10770489 1382.03985862 -867.88560021 1377.97373289 -865.73852539 1373.81347656 C-861.7745772 1366.15644822 -857.24258076 1358.84684353 -852.73852539 1351.50097656 C-846.0578017 1340.6587448 -846.0578017 1340.6587448 -839.92602539 1329.50097656 C-835.5488812 1321.01286586 -830.54486021 1312.91084057 -825.59692383 1304.74658203 C-819.95013658 1295.42017783 -819.95013658 1295.42017783 -814.92602539 1285.75097656 C-812.75641739 1281.298317 -810.20649388 1277.17306093 -807.55102539 1273.00097656 C-802.49269308 1265.04824358 -797.92650194 1256.86959096 -793.39819336 1248.60693359 C-787.07451137 1237.12312711 -780.3630172 1225.8601589 -773.51196289 1214.68457031 C-771.17507935 1210.85567651 -768.98294237 1207.05043955 -767.05102539 1203.00097656 C-764.23895978 1197.23170648 -760.83886295 1191.84723407 -757.46948242 1186.39331055 C-752.20806914 1177.86677299 -747.2148675 1169.21218138 -742.48852539 1160.37597656 C-738.64379497 1153.26745026 -734.41502569 1146.38237868 -730.23852539 1139.46582031 C-729.49795898 1138.23774658 -729.49795898 1138.23774658 -728.74243164 1136.98486328 C-727.73529622 1135.32145488 -726.72221006 1133.6616357 -725.70336914 1132.00537109 C-722.70265676 1127.09275981 -720.01878915 1122.1264509 -717.48950195 1116.95703125 C-715.41397789 1112.88213429 -713.00911132 1109.01835905 -710.61352539 1105.12597656 C-706.58441347 1098.5033209 -702.7255083 1091.82631459 -699.05102539 1085.00097656 C-694.17504227 1075.96569263 -688.85719246 1067.22471305 -683.4871521 1058.47906494 C-678.84581723 1050.91126592 -674.39619463 1043.30519619 -670.35180664 1035.39794922 C-666.46875092 1027.86414121 -661.95184684 1020.72511766 -657.48706055 1013.52685547 C-653.91070365 1007.72384226 -650.39073817 1001.88903156 -647.40258789 995.75878906 C-645.05010592 991.00913298 -642.31246513 986.52134007 -639.55102539 982.00097656 C-635.95964358 976.06981247 -632.41179652 970.12849608 -629.05102539 964.06347656 C-624.79026293 956.37977038 -620.32441333 948.81935294 -615.86352539 941.25097656 C-610.37181182 931.93301046 -605.01126584 922.5660419 -599.85058594 913.05932617 C-596.82708571 907.5099374 -593.6253412 902.12703602 -590.26977539 896.77050781 C-584.93029714 888.17600147 -579.74915907 879.46357004 -575.05102539 870.50097656 C-571.55376785 863.88949446 -567.6732866 857.52340034 -563.80102539 851.12597656 C-559.72593388 844.39190759 -555.66665719 837.68224568 -552.05102539 830.68847656 C-546.7755312 820.52997571 -540.70885867 810.82418461 -534.74731445 801.05810547 C-531.61025445 795.88512006 -528.65833481 790.64052537 -525.78344727 785.31787109 C-523.12172818 780.4646924 -520.29704498 775.70768289 -517.48852539 770.93847656 C-513.33611564 763.86019663 -509.23780183 756.76391917 -505.30102539 749.56347656 C-500.65633209 741.07854379 -495.64654266 732.8247605 -490.63867188 724.55053711 C-486.55026376 717.76743716 -482.7088123 710.92307236 -479.05493164 703.89941406 C-475.35453393 696.97608932 -471.18441316 690.32289004 -467.09301758 683.62597656 C-463.01787276 676.94427029 -459.04675855 670.2538366 -455.42602539 663.31347656 C-451.8482871 656.45795727 -447.88980132 649.86692289 -443.87426758 643.26049805 C-440.31766544 637.37872545 -436.94900438 631.4196195 -433.67602539 625.37597656 C-429.73960832 618.11380715 -425.57986756 611.03793086 -421.22924805 604.01708984 C-417.04519574 597.24669613 -413.14667583 590.33558943 -409.28393555 583.37841797 C-402.94663664 571.99732768 -396.31989721 560.78982063 -389.51196289 549.68457031 C-387.19105257 545.88184801 -385.00812542 542.09967908 -383.09399414 538.07519531 C-379.44147036 530.70829817 -375.01232045 523.79844789 -370.6796875 516.81982422 C-366.37170947 509.86782113 -362.37125751 502.89273342 -358.79150391 495.52929688 C-356.15418687 490.38650792 -353.08158225 485.50632548 -350.03439331 480.59988403 C-344.42961959 471.56641287 -338.99449926 462.49883898 -334.13549805 453.03735352 C-331.45011528 447.82350888 -328.46326437 442.85220751 -325.34399414 437.88378906 C-322.87396903 433.9152515 -320.48545802 429.90366889 -318.11352539 425.87597656 C-317.52003296 424.8734082 -317.52003296 424.8734082 -316.91455078 423.85058594 C-314.67488994 420.04099167 -312.52292251 416.19576488 -310.42602539 412.30566406 C-307.24284892 406.43753862 -303.83772865 400.71323062 -300.40478516 394.98858643 C-293.33000235 383.19432737 -293.33000235 383.19432737 -286.73852539 371.12597656 C-283.2230285 364.3719147 -279.27425368 357.95358167 -275.23852539 351.50097656 C-271.00164531 344.64693081 -266.7972922 337.83177206 -263.30102539 330.56347656 C-261.08032493 325.98931638 -258.54536874 321.71184254 -255.80102539 317.43847656 C-251.23723751 310.31348671 -247.1212457 302.97986741 -243.05102539 295.56347656 C-237.39001466 285.2534834 -231.47948173 275.13404337 -225.37475586 265.07788086 C-221.47131395 258.62528398 -217.85601103 252.11856894 -214.38696289 245.42285156 C-211.03935978 239.15400673 -207.17922095 233.17107637 -203.45019531 227.12524414 C-199.51170758 220.70079439 -195.87043558 214.19953794 -192.42797852 207.49926758 C-189.57860241 202.00602464 -186.37225471 196.80615203 -183.04272461 191.59350586 C-178.50405258 184.44285707 -174.46707697 177.03129317 -170.39819336 169.60693359 C-165.63180557 160.95117338 -160.62884865 152.4367874 -155.5300293 143.97387695 C-151.05607958 136.54797298 -146.6377353 129.10219648 -142.52368164 121.46972656 C-139.30453216 115.54956641 -135.87115546 109.76885707 -132.40588379 103.99023438 C-125.44133143 92.39010359 -125.44133143 92.39010359 -118.98852539 80.50097656 C-99.75652141 43.6466958 -73.22471782 16.72612874 -33.23852539 3.50097656 C-22.19951285 0.26228484 -11.42233815 -0.02656137 0 0 Z M-12.75048828 118.46606445 C-14.06830252 120.70528987 -15.23006696 122.97560184 -16.36352539 125.31347656 C-17.28815456 127.10385838 -18.21811414 128.89149453 -19.15258789 130.67675781 C-19.88977051 132.09335693 -19.88977051 132.09335693 -20.6418457 133.53857422 C-23.48149158 138.80711597 -26.62298795 143.89245186 -29.73852539 149.00097656 C-34.70931393 157.19711913 -39.47750883 165.45714359 -44.02880859 173.89233398 C-48.39903131 181.92873726 -53.14608161 189.72741718 -57.88720703 197.54882812 C-61.30525877 203.20938558 -64.62551036 208.88381932 -67.67602539 214.75097656 C-71.21194131 221.54847009 -75.17810358 228.00737193 -79.23852539 234.50097656 C-83.73094145 241.78392407 -88.09204702 249.10051983 -92.05102539 256.68847656 C-95.62681603 263.5401879 -99.58271158 270.1277903 -103.59619141 276.73046875 C-107.21752017 282.71912943 -110.64954077 288.78839156 -113.98852539 294.93847656 C-117.50527353 301.41285565 -121.16596616 307.73391492 -125.08227539 313.97753906 C-131.35880294 324.10775833 -137.07096221 334.60896766 -142.87817383 345.01293945 C-147.13763904 352.63933022 -151.61593281 360.0871999 -156.23852539 367.50097656 C-159.21552221 372.31051151 -162.08737662 377.09358388 -164.55102539 382.18847656 C-168.32572486 389.90671191 -172.97333654 397.151456 -177.44555664 404.47851562 C-178.62972346 406.42159065 -179.80918701 408.36746838 -180.98852539 410.31347656 C-181.34076172 410.88670654 -181.69299805 411.45993652 -182.0559082 412.05053711 C-184.06410995 415.36538747 -185.86145238 418.72298726 -187.55883789 422.20800781 C-190.48579153 428.14215942 -193.91221116 433.73566904 -197.36352539 439.37597656 C-202.13885489 447.24753987 -206.78998677 455.15566515 -211.17602539 463.25097656 C-214.67443389 469.70601866 -218.30334541 476.00121302 -222.20336914 482.22363281 C-224.64687468 486.15856783 -227.01247465 490.13531352 -229.36352539 494.12597656 C-229.75934814 494.79459717 -230.1551709 495.46321777 -230.56298828 496.15209961 C-232.83003409 500.00846287 -235.00943 503.90174653 -237.13696289 507.83691406 C-240.70633305 514.41662384 -244.54181795 520.82762255 -248.38305664 527.25097656 C-251.61101649 532.67456543 -254.70125698 538.14965782 -257.70239258 543.70166016 C-260.40674588 548.62984118 -263.26637702 553.46686688 -266.11352539 558.31347656 C-267.35484582 560.43431576 -268.59573408 562.55540797 -269.83618164 564.67675781 C-270.72007568 566.18810303 -270.72007568 566.18810303 -271.62182617 567.72998047 C-275.57998768 574.51420474 -279.47855643 581.33245362 -283.29711914 588.19628906 C-287.4991354 595.73737369 -291.82646191 603.1802719 -296.30102539 610.56347656 C-299.80081071 616.33978942 -303.18891432 622.13146946 -306.30102539 628.12597656 C-310.44317406 636.09456796 -315.16154089 643.68646949 -319.88793945 651.31835938 C-326.94003477 662.64906003 -326.94003477 662.64906003 -333.17602539 674.43847656 C-335.88452995 680.02804968 -339.09118327 685.19341082 -342.41699219 690.42724609 C-347.6535175 698.68238154 -352.43661281 707.16895651 -357.08618164 715.76660156 C-360.0664981 721.24012999 -363.22261163 726.59341345 -366.42602539 731.93847656 C-370.73949883 739.17641209 -374.91352476 746.46711898 -378.92602539 753.87597656 C-382.61832612 760.68498995 -386.51608549 767.29979242 -390.671875 773.83520508 C-395.82528743 781.95082334 -400.51397052 790.31200077 -405.08618164 798.76660156 C-408.06650206 804.24013726 -411.22275366 809.59332299 -414.42602539 814.93847656 C-418.75167745 822.20063339 -422.95060727 829.51250287 -426.98852539 836.93847656 C-431.52029628 845.26744404 -436.29378173 853.41194999 -441.23852539 861.50097656 C-445.74936851 868.88846157 -450.18956176 876.21777654 -453.95727539 884.02050781 C-456.02763797 888.02867926 -458.47687472 891.7950806 -460.86743164 895.61816406 C-463.77406247 900.32437633 -466.50228181 905.13187425 -469.23852539 909.93847656 C-469.75656738 910.84847412 -470.27460938 911.75847168 -470.80834961 912.69604492 C-472.67871677 915.98619886 -474.54546872 919.27839344 -476.41186523 922.57080078 C-482.09438095 932.58935159 -487.94544813 942.49801569 -493.96508789 952.31738281 C-496.31089015 956.1608896 -498.51632867 959.99077577 -500.46508789 964.05175781 C-503.43213926 970.0338051 -506.88043098 975.6837652 -510.36352539 981.37597656 C-514.97559223 988.97748046 -519.47000036 996.60489634 -523.67602539 1004.43847656 C-527.97869851 1012.44253286 -532.67992364 1020.16920679 -537.48852539 1027.87597656 C-542.31234012 1035.61126222 -546.84324782 1043.25608999 -550.74633789 1051.49707031 C-552.92285714 1055.87859728 -555.53294177 1059.95354351 -558.13696289 1064.09082031 C-560.45616552 1067.80743525 -562.60322577 1071.61402525 -564.73852539 1075.43847656 C-565.12041016 1076.12159912 -565.50229492 1076.80472168 -565.89575195 1077.50854492 C-566.65470981 1078.8677254 -567.41318135 1080.22717756 -568.17114258 1081.58691406 C-573.50731023 1091.15588808 -579.07391463 1100.56135215 -584.73852539 1109.93847656 C-589.40570571 1117.66930877 -593.86140482 1125.41391753 -598.01586914 1133.43066406 C-601.62193596 1140.19181915 -605.70705174 1146.69496515 -609.69750977 1153.23339844 C-613.48536524 1159.46683042 -617.02889254 1165.78085802 -620.45458984 1172.21972656 C-623.4912989 1177.80524315 -626.77956644 1183.23828851 -630.05102539 1188.68847656 C-634.58266499 1196.27244095 -639.07078981 1203.86827473 -643.30102539 1211.62597656 C-647.90243957 1220.06305679 -652.88045131 1228.26053903 -657.85644531 1236.48071289 C-661.0981185 1241.8583373 -664.23844188 1247.23167029 -667.11352539 1252.81347656 C-671.30410647 1260.90849773 -676.12938008 1268.61389045 -680.89074707 1276.38043213 C-685.54948392 1283.98612212 -690.00703688 1291.60878508 -694.09008789 1299.54394531 C-697.06529226 1305.16662849 -700.44292756 1310.56274112 -703.73852539 1316.00097656 C-707.7936443 1322.69352704 -711.83181668 1329.360249 -715.42602539 1336.31347656 C-718.41994503 1342.08098408 -721.67670545 1347.63546185 -725.05102539 1353.18847656 C-729.05152073 1359.77259908 -732.88764069 1366.41111275 -736.55102539 1373.18847656 C-741.33341522 1382.02445263 -746.47426144 1390.61643767 -751.68212891 1399.20703125 C-756.08557769 1406.4999101 -760.25574018 1413.88555469 -764.30786133 1421.37792969 C-767.37743364 1427.02116735 -770.6193935 1432.53168142 -773.98852539 1438.00097656 C-774.67313843 1439.1184729 -774.67313843 1439.1184729 -775.37158203 1440.25854492 C-777.37083918 1443.51193786 -779.39016107 1446.745487 -781.48461914 1449.93847656 C-785.48519118 1456.24923809 -787.63692725 1460.98620024 -786.23852539 1468.50097656 C-784.52262525 1474.55709471 -781.34942386 1478.03950442 -776.23852539 1481.50097656 C-773.4147796 1482.44222516 -771.70470876 1482.62655485 -768.78284596 1482.62801107 C-767.86254918 1482.63089199 -766.94225239 1482.63377291 -765.99406783 1482.63674113 C-764.9787192 1482.63482293 -763.96337056 1482.63290473 -762.91725379 1482.6309284 C-761.83596775 1482.63282764 -760.7546817 1482.63472688 -759.64062942 1482.63668367 C-755.97305851 1482.64188168 -752.30552548 1482.63988582 -748.63795185 1482.63799095 C-745.98834529 1482.64024533 -743.33874181 1482.64289534 -740.68913642 1482.64602679 C-734.88724371 1482.65207297 -729.08535869 1482.6543626 -723.28346298 1482.65425365 C-714.5977203 1482.65410339 -705.91198771 1482.65964491 -697.22624792 1482.66630055 C-682.42568608 1482.6774625 -667.6251256 1482.68378029 -652.82456017 1482.6874733 C-637.81774099 1482.69122458 -622.81092495 1482.69709375 -607.80410767 1482.70555115 C-606.85758731 1482.70608224 -605.91106695 1482.70661334 -604.93586416 1482.70716052 C-601.08106343 1482.70932717 -597.2262627 1482.71150379 -593.37146199 1482.71369446 C-546.60746165 1482.74021578 -499.84345963 1482.7557645 -453.07945387 1482.76885735 C-437.91826385 1482.77310571 -422.75707395 1482.77767331 -407.59588408 1482.78244066 C-328.20785179 1482.80734622 -248.81981914 1482.82941342 -169.43178377 1482.84163104 C-163.61907764 1482.84252842 -157.80637151 1482.84344313 -151.99366538 1482.84435878 C-150.84059 1482.84454039 -149.68751463 1482.84472201 -148.49949757 1482.84490912 C-136.81690324 1482.84675183 -125.13430891 1482.84861768 -113.45171458 1482.85050721 C-111.10929045 1482.85088526 -108.76686633 1482.85126155 -106.4244422 1482.85163609 C-31.17573034 1482.86366914 44.07295841 1482.89336257 119.32165939 1482.93505121 C173.38073292 1482.9649916 227.43980171 1482.99262452 281.49888325 1483.00232887 C283.16570623 1483.00262971 283.16570623 1483.00262971 284.86620241 1483.00293662 C309.25749326 1483.00728674 333.64878408 1483.01023278 358.04007526 1483.01186313 C367.85358872 1483.01253951 377.66710217 1483.01339503 387.48061562 1483.0143013 C389.09169464 1483.01444244 389.09169464 1483.01444244 390.73532072 1483.01458644 C425.36377607 1483.01770135 459.99220204 1483.03622625 494.6206468 1483.06265127 C529.48950477 1483.08917213 564.35832994 1483.0999551 599.22719736 1483.08891528 C604.04148206 1483.08739366 608.85576679 1483.08604826 613.67005157 1483.08480835 C614.61381798 1483.08455862 615.55758438 1483.08430889 616.52994977 1483.0840516 C631.49677287 1483.08055142 646.46353214 1483.09389047 661.43033991 1483.11418608 C676.13377256 1483.13377808 690.83711773 1483.13565373 705.54055439 1483.1184598 C714.16949565 1483.10890743 722.79816826 1483.11314983 731.427082 1483.13748215 C737.1513571 1483.15226691 742.8754359 1483.14905445 748.59970111 1483.13095158 C751.84899557 1483.12118729 755.09765781 1483.12204941 758.34693557 1483.13950478 C761.8362649 1483.15704479 765.32417739 1483.1440069 768.81345719 1483.12311971 C769.81685211 1483.13554596 770.82024703 1483.14797221 771.85404786 1483.16077502 C778.28911217 1483.07886889 782.86944704 1481.83557664 787.76147461 1477.50097656 C792.1769925 1471.71665488 792.67489155 1465.59422999 791.76147461 1458.50097656 C790.4323106 1454.90392647 788.55570533 1451.79772146 786.51147461 1448.56347656 C785.97151855 1447.6652417 785.4315625 1446.76700684 784.87524414 1445.84155273 C783.19134929 1443.04816207 781.47720794 1440.2748931 779.76147461 1437.50097656 C778.21229493 1434.9409643 776.67220736 1432.3756699 775.13354492 1429.80932617 C774.13325683 1428.14168997 773.12998518 1426.47583984 772.1237793 1424.81176758 C768.44654478 1418.71526822 764.96726223 1412.52872434 761.54785156 1406.28491211 C758.44235923 1400.64636559 755.16456563 1395.12796947 751.82397461 1389.62597656 C747.35666458 1382.26592349 743.15071398 1374.80348768 739.05786133 1367.22998047 C734.87469137 1359.56058575 730.33951807 1352.12203743 725.70727539 1344.71655273 C722.86062029 1340.1263317 720.23094182 1335.53524038 717.86694336 1330.67675781 C714.78348904 1324.37576385 711.19492313 1318.44310866 707.50268555 1312.48974609 C697.69877711 1296.66882823 697.69877711 1296.66882823 693.76147461 1289.00097656 C689.98429932 1281.65218655 685.64344725 1274.66327709 681.32397461 1267.62597656 C676.33696428 1259.49951237 671.4797101 1251.37361635 667.14794922 1242.8737793 C663.2654395 1235.35147439 658.80738386 1228.175733 654.41601562 1220.94311523 C649.98989087 1213.62616561 645.81320694 1206.2148683 641.76074219 1198.6862793 C638.60134635 1192.87729522 635.16241335 1187.30352481 631.57397461 1181.75097656 C628.06348035 1176.31378987 624.83470026 1170.91751739 622.07397461 1165.06347656 C617.721896 1155.85050926 612.27627132 1147.26611064 606.92675781 1138.6105957 C602.6499908 1131.68178807 598.60422319 1124.67934246 594.76147461 1117.50097656 C590.80722892 1110.36940583 586.68217886 1103.34451084 582.44897461 1096.37597656 C578.92450296 1090.56866936 575.62728272 1084.65817552 572.38647461 1078.68847656 C568.7923007 1072.06972141 565.04812117 1065.58628695 561.07397461 1059.18847656 C557.5111649 1053.45285997 554.20771785 1047.68806493 551.10717773 1041.6887207 C547.10930042 1034.07652996 542.58664371 1026.76658545 538.12768555 1019.41870117 C534.54515133 1013.50975531 531.06619368 1007.56954896 527.76147461 1001.50097656 C522.06322956 991.12614502 516.07352031 980.96843974 509.81054688 970.92236328 C506.92887809 966.25547753 504.25577443 961.58685564 501.85522461 956.65332031 C498.7959847 950.40154467 495.22712186 944.50884972 491.55899048 938.60263062 C486.09823664 929.80083766 480.78568884 920.98091412 476.0847168 911.74487305 C472.3798563 904.56337572 468.08697272 897.74777626 463.84716797 890.87353516 C460.6065095 885.59796288 457.47883604 880.31400768 454.63647461 874.81347656 C450.21587985 866.29620994 445.22222646 858.13735816 440.24145508 849.93896484 C432.64450343 837.42442192 432.64450343 837.42442192 429.88647461 832.25097656 C424.43632135 822.18372456 418.79673554 812.28875081 412.52612305 802.70922852 C409.86820657 798.56161945 407.64353888 794.29900946 405.48022461 789.87207031 C402.1705399 783.11274248 398.39822342 776.72396871 394.4258728 770.33666992 C384.45363655 754.28917733 384.45363655 754.28917733 380.44897461 746.50097656 C376.94449658 739.69816627 373.03787748 733.17305118 369.05908203 726.63769531 C365.82889729 721.32562073 362.75126005 715.95159043 359.76147461 710.50097656 C355.99136757 703.75265711 352.12115635 697.07654614 348.12084961 690.46191406 C347.46648926 689.37910156 346.81212891 688.29628906 346.13793945 687.18066406 C344.83519774 685.02966238 343.52843597 682.88108861 342.21704102 680.73535156 C339.20934487 675.77096409 336.36420426 670.81163572 333.82397461 665.59082031 C330.75531115 659.31833704 327.17671579 653.41376182 323.50131226 647.48754883 C313.40982094 631.20237744 313.40982094 631.20237744 309.44897461 623.50097656 C305.10666107 615.08100516 300.15968129 607.03416513 295.24243164 598.94067383 C293.67692308 596.36168816 292.11536178 593.78041392 290.55834961 591.19628906 C289.8482373 590.01897217 289.8482373 590.01897217 289.1237793 588.81787109 C287.7417853 586.46749063 286.42933563 584.08888082 285.13647461 581.68847656 C282.07281464 576.0162361 278.89278642 570.41308611 275.69897461 564.81347656 C275.19221191 563.92233154 274.68544922 563.03118652 274.16333008 562.11303711 C271.93240741 558.20946728 269.68178573 554.33591639 267.26538086 550.54394531 C265.36925574 547.54769216 263.64310081 544.49337138 261.96069336 541.37207031 C258.68402311 535.2966865 255.18646114 529.35847377 251.67160034 523.41918945 C245.73812773 513.38769941 239.93396185 503.3087701 234.37646484 493.06274414 C231.33247238 487.47261118 228.08821603 482.06670984 224.70678711 476.67285156 C221.31693698 471.14562606 218.20901213 465.45996509 215.04907227 459.79931641 C206.52445108 444.56894322 206.52445108 444.56894322 197.51147461 429.62597656 C194.8207744 425.31975349 192.35799486 420.93900347 190.01147461 416.43847656 C184.67576047 406.21473431 178.76267357 396.22975101 172.49731445 386.54736328 C170.04687328 382.75587493 167.94440122 378.91811967 165.96850586 374.85644531 C162.86519843 368.5398122 159.2689437 362.57621784 155.55981445 356.60400391 C150.5531916 348.53398809 145.55631129 340.47840222 141.26147461 332.00097656 C137.00553654 323.60824523 132.04412381 315.6558282 127.12097168 307.64523315 C122.48448346 300.09337734 118.0361539 292.51248329 114.01806641 284.60961914 C110.55237495 277.88673035 106.52889608 271.52198202 102.4519043 265.15551758 C99.67457079 260.77670306 97.15969583 256.39228492 94.89038086 251.72753906 C91.79927784 245.40829901 88.20471313 239.45893259 84.50213623 233.48892212 C79.00246851 224.61360355 73.68142809 215.72547613 68.89819336 206.43847656 C65.9827188 200.92966299 62.67840248 195.64157467 59.44897461 190.31347656 C54.82738722 182.68691813 50.31774533 175.03197904 46.07397461 167.18847656 C39.81889028 155.63100716 33.10180209 144.34262714 26.06616211 133.24316406 C24.25918404 130.36344931 22.68917084 127.46591913 21.26147461 124.37597656 C18.10066942 117.96574549 14.84827424 112.90781417 7.76147461 110.50097656 C-0.60086919 109.08822565 -7.49746965 111.63875185 -12.75048828 118.46606445 Z " fill="#EFBC1B" transform="translate(957.238525390625,163.4990234375)"/>
<path d="M0 0 C0.67918488 -0.0049649 1.35836975 -0.00992981 2.05813599 -0.01504517 C4.28551282 -0.02954112 6.51281829 -0.03645002 8.74023438 -0.04199219 C9.5094371 -0.04481956 10.27863983 -0.04764694 11.07115173 -0.05056 C15.14737281 -0.06550671 19.22355895 -0.07476287 23.29980469 -0.07910156 C27.46727991 -0.08455875 31.6344239 -0.10854113 35.80179596 -0.13707352 C39.04330309 -0.15589373 42.28473379 -0.16091581 45.52629089 -0.16243744 C47.06017351 -0.16542445 48.59405611 -0.17331534 50.12788391 -0.18662262 C72.77985112 -0.36901581 93.68949838 5.26346827 110.58398438 21.28613281 C127.3608183 38.94466895 131.43898428 58.00054385 130.90917969 81.75195312 C130.76316168 86.43021831 130.44370288 91.09455256 130.12491608 95.7636261 C129.80027021 101.19368035 129.67467373 106.62454428 129.54171228 112.06216145 C129.05301329 132.04221965 127.98445156 151.97045369 126.78808904 171.91889429 C126.50488609 176.66042233 126.22764136 181.40229972 125.94963074 186.14413452 C125.46929801 194.3242519 124.98549909 202.50415794 124.49931335 210.68392944 C123.79431146 222.54674924 123.09591282 234.4099513 122.39917952 246.27325928 C121.2652011 265.58016481 120.12755238 284.88685197 118.98681641 304.19335938 C118.91886008 305.34351599 118.85090375 306.4936726 118.78088814 307.67868245 C118.22970156 317.00700668 117.67833446 326.33532023 117.1269598 335.66363335 C116.64493952 343.81871932 116.16299144 351.97380956 115.68115234 360.12890625 C115.57934319 361.85198618 115.57934319 361.85198618 115.47547728 363.6098758 C114.33848996 382.85501921 113.20545292 402.10039331 112.0751605 421.34593105 C111.38108869 433.16071746 110.6835658 444.97529001 109.98135221 456.78959537 C109.49961606 464.89834755 109.02149992 473.00730824 108.54606736 481.11643243 C108.27304488 485.77104894 107.99849445 490.42556023 107.71936607 495.07981491 C106.50564483 515.33608864 105.53277514 535.56922218 105.03496552 555.85647583 C104.79373157 565.43459905 104.30880611 574.99441409 103.6965332 584.55541992 C103.51700935 587.42003972 103.36027079 590.28544197 103.203125 593.15136719 C101.83703228 615.93392808 96.09085869 635.13689237 78.83398438 651.16113281 C78.18558594 651.82628906 77.5371875 652.49144531 76.86914062 653.17675781 C71.91404702 658.02466969 66.86771254 661.51461658 60.70898438 664.59863281 C60.05244873 664.92839111 59.39591309 665.25814941 58.71948242 665.59790039 C49.64047914 669.93510493 41.22296552 670.53403229 31.27270508 670.53173828 C29.1679442 670.53608846 27.06532583 670.57242578 24.9609375 670.61035156 C5.76183419 670.7715961 -8.56435131 663.38365666 -22.16601562 650.16113281 C-22.8028125 649.58621094 -23.43960938 649.01128906 -24.09570312 648.41894531 C-41.24915468 632.48529476 -44.38760663 610.56899516 -45.61914062 588.48535156 C-45.7868411 585.4857998 -45.97092786 582.48764373 -46.15820312 579.48925781 C-46.76582086 569.42041092 -47.21004837 559.3576481 -47.46584082 549.27360964 C-47.97321062 529.62982342 -49.04065052 510.03409225 -50.21191096 490.42023492 C-50.49487009 485.66369672 -50.77226351 480.90683314 -51.05036926 476.15000916 C-51.53090254 467.94260142 -52.01468027 459.73539044 -52.50068665 451.52830505 C-53.20536486 439.62705203 -53.90387336 427.72544256 -54.60082048 415.82373458 C-55.73502338 396.45635412 -56.87266073 377.08917724 -58.01318359 357.72216797 C-58.08113992 356.56819293 -58.14909625 355.41421789 -58.21911186 354.22527391 C-58.70132024 346.0372214 -59.18365339 337.84917625 -59.66601562 329.66113281 C-60.21704577 320.3074595 -60.76801937 310.95378286 -61.31884766 301.60009766 C-61.38672043 300.44756258 -61.4545932 299.29502751 -61.52452272 298.10756713 C-62.66127963 278.80255545 -63.79434389 259.49732869 -64.9248395 240.19194937 C-65.6191609 228.33808777 -66.31671353 216.48442513 -67.01864779 204.63101184 C-67.50016802 196.49608003 -67.97830694 188.36095378 -68.45393264 180.22567523 C-68.72711923 175.55499828 -69.00174006 170.88441883 -69.28063393 166.2140789 C-70.47952978 146.12066878 -71.45995492 126.04910038 -71.96999359 105.92566681 C-72.1125626 100.47352636 -72.35922698 95.03979008 -72.72851562 89.59863281 C-74.22758209 65.58899443 -72.55369905 44.23463738 -56.13476562 25.32128906 C-55.48507812 24.6084375 -54.83539062 23.89558594 -54.16601562 23.16113281 C-53.31523438 22.13826172 -53.31523438 22.13826172 -52.44726562 21.09472656 C-39.80574802 6.92846451 -18.44300776 0.10336573 0 0 Z " fill="#EFBC1B" transform="translate(931.166015625,653.8388671875)"/>
<path d="M0 0 C2.41711331 2.15262674 4.72383072 4.37159009 7.0078125 6.6640625 C7.63945313 7.23640625 8.27109375 7.80875 8.921875 8.3984375 C23.11736491 21.53082904 32.23133824 44.45476448 33.0078125 63.6640625 C33.04777344 64.57285156 33.08773438 65.48164062 33.12890625 66.41796875 C33.63690559 89.33770364 25.89061518 112.76258041 10.1953125 129.6640625 C-6.3302661 146.76815873 -28.0189645 157.6417452 -52.06396484 158.0949707 C-64.83081521 158.12044779 -75.93928493 156.89172985 -87.9921875 152.6640625 C-89.11753906 152.29152344 -90.24289062 151.91898438 -91.40234375 151.53515625 C-99.29163923 148.61357199 -105.54755078 143.99966282 -111.9921875 138.6640625 C-112.88164063 137.92800781 -113.77109375 137.19195313 -114.6875 136.43359375 C-132.06654945 121.41958314 -142.73286933 99.68433552 -144.7734375 76.76953125 C-146.26032018 53.95790835 -139.42081274 30.12954894 -124.41796875 12.66796875 C-121.68658943 9.58848637 -118.86004739 6.61677032 -115.9921875 3.6640625 C-115.43015625 3.07625 -114.868125 2.4884375 -114.2890625 1.8828125 C-83.34158303 -27.43585226 -32.22882275 -25.16036032 0 0 Z " fill="#EFBC1B" transform="translate(1015.9921875,1390.3359375)"/>
</svg>
