<?xml version="1.0" standalone="no"?>
<!DOCTYPE svg PUBLIC "-//W3C//DTD SVG 20010904//EN"
 "http://www.w3.org/TR/2001/REC-SVG-20010904/DTD/svg10.dtd">
<svg version="1.0" xmlns="http://www.w3.org/2000/svg"
 width="601.000000pt" height="601.000000pt" viewBox="0 0 601.000000 601.000000"
 preserveAspectRatio="xMidYMid meet">

<g transform="translate(0.000000,601.000000) scale(0.100000,-0.100000)"
fill="#000000" stroke="none">
<path d="M3840 4430 c0 -11 -4 -20 -10 -20 -5 0 -10 -13 -10 -30 0 -16 -4 -30
-10 -30 -5 0 -10 -9 -10 -20 0 -11 -4 -20 -10 -20 -5 0 -10 -12 -10 -26 0 -28
-20 -54 -42 -54 -8 0 -20 -9 -28 -20 -8 -11 -22 -20 -32 -20 -10 0 -18 -4 -18
-10 0 -5 -9 -10 -20 -10 -11 0 -20 -4 -20 -10 0 -5 -9 -10 -20 -10 -11 0 -20
-4 -20 -10 0 -5 -9 -10 -20 -10 -11 0 -20 -4 -20 -10 0 -5 -13 -10 -30 -10
-16 0 -30 -4 -30 -10 0 -5 -13 -10 -30 -10 -16 0 -30 -4 -30 -10 0 -5 -18 -10
-40 -10 -22 0 -40 -4 -40 -10 0 -5 -18 -10 -40 -10 -22 0 -40 -4 -40 -10 0 -6
-27 -10 -60 -10 -33 0 -60 -4 -60 -10 0 -6 -40 -10 -100 -10 -60 0 -100 -4
-100 -10 0 -6 -133 -10 -380 -10 -247 0 -380 -4 -380 -10 0 -5 -9 -10 -20 -10
-11 0 -20 -7 -20 -16 0 -8 -22 -37 -50 -64 -27 -27 -50 -56 -50 -64 0 -9 -4
-16 -10 -16 -6 0 -10 -62 -10 -166 l0 -166 40 -38 c22 -21 40 -46 40 -54 0 -9
8 -16 20 -16 12 0 20 -7 20 -16 0 -33 26 -44 104 -44 l76 0 0 -30 c0 -16 5
-30 10 -30 6 0 10 -9 10 -20 0 -11 5 -20 10 -20 6 0 10 -13 10 -30 0 -16 5
-30 10 -30 6 0 10 -9 10 -20 0 -11 5 -20 10 -20 6 0 10 -13 10 -28 0 -16 8
-34 20 -42 12 -8 20 -26 20 -42 0 -15 5 -28 10 -28 6 0 10 -9 10 -20 0 -11 5
-20 10 -20 6 0 10 -9 10 -20 0 -11 5 -20 10 -20 6 0 10 -13 10 -30 0 -16 5
-30 10 -30 6 0 10 -9 10 -20 0 -11 5 -20 10 -20 6 0 10 -7 10 -16 0 -26 26
-44 64 -44 20 0 36 -4 36 -10 0 -5 9 -10 20 -10 11 0 20 5 20 10 0 6 14 10 30
10 17 0 30 5 30 10 0 6 12 10 26 10 42 0 54 21 54 94 0 37 -4 66 -10 66 -5 0
-10 -25 -10 -56 0 -57 -14 -84 -44 -84 -9 0 -16 -4 -16 -10 0 -6 -32 -10 -76
-10 -78 0 -104 11 -104 44 0 9 -4 16 -10 16 -5 0 -10 9 -10 20 0 11 -4 20 -10
20 -5 0 -10 9 -10 20 0 11 -4 20 -10 20 -5 0 -10 9 -10 20 0 11 -4 20 -10 20
-5 0 -10 14 -10 30 0 17 -4 30 -10 30 -5 0 -10 9 -10 20 0 11 -4 20 -10 20 -5
0 -10 9 -10 20 0 11 -4 20 -10 20 -5 0 -10 9 -10 20 0 11 -4 20 -10 20 -5 0
-10 9 -10 20 0 11 -4 20 -10 20 -5 0 -10 14 -10 30 0 17 -4 30 -10 30 -5 0
-10 9 -10 20 0 11 -4 20 -10 20 -5 0 -10 14 -10 30 0 17 -4 30 -10 30 -5 0
-10 9 -10 20 0 19 7 20 200 20 193 0 200 1 200 20 0 11 5 20 10 20 16 0 13
517 -2 524 -10 5 -10 7 0 12 6 3 12 14 12 25 0 18 8 19 120 19 73 0 120 4 120
10 0 6 37 10 90 10 53 0 90 4 90 10 0 6 27 10 60 10 33 0 60 4 60 10 0 6 18
10 40 10 22 0 40 5 40 10 0 6 18 10 40 10 22 0 40 5 40 10 0 6 14 10 30 10 17
0 30 5 30 10 0 6 14 10 30 10 17 0 30 5 30 10 0 6 9 10 20 10 11 0 20 5 20 10
0 6 9 10 20 10 11 0 20 5 20 10 0 6 8 10 18 10 10 0 24 9 32 20 8 11 20 20 28
20 18 0 82 66 82 85 0 8 5 15 10 15 6 0 10 9 10 20 0 11 5 20 10 20 6 0 10 16
10 36 0 46 19 64 70 64 23 0 48 -6 56 -14 21 -22 21 -1510 0 -1532 -8 -8 -33
-14 -56 -14 -51 0 -70 18 -70 64 0 20 -4 36 -10 36 -5 0 -10 9 -10 20 0 11 -4
20 -10 20 -5 0 -10 7 -10 15 0 19 -64 85 -82 85 -8 0 -20 9 -28 20 -8 11 -22
20 -32 20 -10 0 -18 5 -18 10 0 6 -9 10 -20 10 -11 0 -20 5 -20 10 0 6 -9 10
-20 10 -11 0 -20 5 -20 10 0 6 -13 10 -30 10 -16 0 -30 5 -30 10 0 6 -13 10
-30 10 -16 0 -30 5 -30 10 0 6 -18 10 -40 10 -22 0 -40 5 -40 10 0 6 -18 10
-40 10 -22 0 -40 5 -40 10 0 6 -27 10 -60 10 -33 0 -60 4 -60 10 0 6 -33 10
-80 10 -47 0 -80 4 -80 10 0 6 -50 10 -130 10 l-130 0 0 -80 c0 -47 4 -80 10
-80 6 0 10 -30 10 -70 0 -40 4 -70 10 -70 6 0 10 -22 10 -50 0 -27 5 -50 10
-50 6 0 10 30 10 70 0 40 -4 70 -10 70 -5 0 -10 18 -10 40 l0 40 40 0 c38 0
40 2 40 30 0 17 -4 30 -10 30 -5 0 -10 9 -10 20 0 11 -4 20 -10 20 -5 0 -10
14 -10 30 l0 30 60 0 c33 0 60 -4 60 -10 0 -6 40 -10 100 -10 60 0 100 -4 100
-10 0 -6 27 -10 60 -10 33 0 60 -4 60 -10 0 -5 18 -10 40 -10 22 0 40 -4 40
-10 0 -5 18 -10 40 -10 22 0 40 -4 40 -10 0 -5 14 -10 30 -10 17 0 30 -4 30
-10 0 -5 14 -10 30 -10 17 0 30 -4 30 -10 0 -5 9 -10 20 -10 11 0 20 -4 20
-10 0 -5 9 -10 20 -10 11 0 20 -4 20 -10 0 -5 12 -10 26 -10 16 0 37 -12 54
-30 15 -16 35 -30 44 -30 9 0 16 -8 16 -18 0 -10 9 -24 20 -32 12 -8 20 -26
20 -42 0 -15 5 -28 10 -28 6 0 10 -13 10 -30 0 -16 5 -30 10 -30 6 0 10 -9 10
-20 0 -18 7 -20 60 -20 33 0 60 4 60 10 0 6 9 10 20 10 20 0 20 7 20 776 0
659 -2 778 -14 790 -10 9 -37 14 -80 14 -59 0 -66 -2 -66 -20z"/>
<path d="M460 2340 c0 -5 -7 -10 -16 -10 -20 0 -44 -24 -44 -44 0 -9 -4 -16
-10 -16 -6 0 -10 -37 -10 -90 l0 -90 -40 0 -40 0 0 -50 c0 -47 2 -50 26 -50
51 0 54 -13 54 -214 l0 -186 70 0 70 0 0 200 0 200 50 0 c43 0 50 3 50 20 0
11 5 20 10 20 6 0 10 14 10 30 l0 30 -60 0 -60 0 0 70 0 70 60 0 60 0 0 60 0
60 -90 0 c-53 0 -90 -4 -90 -10z"/>
<path d="M2160 2320 c0 -5 -13 -10 -30 -10 l-30 0 0 -350 c0 -343 0 -350 20
-350 11 0 20 -4 20 -10 0 -6 53 -10 140 -10 87 0 140 4 140 10 0 6 9 10 20 10
11 0 20 5 20 10 0 6 7 10 16 10 20 0 44 24 44 44 0 9 5 16 10 16 6 0 10 63 10
170 0 107 -4 170 -10 170 -5 0 -10 9 -10 20 0 13 -7 20 -20 20 -11 0 -20 5
-20 10 0 6 -13 10 -30 10 -16 0 -30 5 -30 10 0 6 -22 10 -50 10 -27 0 -50 -4
-50 -10 0 -5 -18 -10 -40 -10 l-40 0 0 120 0 120 -40 0 c-22 0 -40 -4 -40 -10z
m200 -340 c0 -5 9 -10 20 -10 19 0 20 -7 20 -116 0 -125 -7 -144 -53 -144 -14
0 -28 -6 -31 -12 -5 -10 -7 -10 -12 0 -3 6 -19 12 -35 12 l-29 0 0 130 c0 123
1 130 20 130 11 0 20 5 20 10 0 6 18 10 40 10 22 0 40 -4 40 -10z"/>
<path d="M3700 2320 c0 -5 -13 -10 -30 -10 l-30 0 0 -360 0 -360 70 0 70 0 0
120 c0 66 2 120 5 120 13 0 55 -50 55 -65 0 -8 5 -15 10 -15 6 0 10 -8 10 -18
0 -10 9 -24 20 -32 11 -8 20 -22 20 -32 0 -10 5 -18 10 -18 6 0 10 -7 10 -16
0 -33 26 -44 104 -44 44 0 76 4 76 10 0 6 -4 10 -10 10 -5 0 -10 8 -10 18 0
10 -9 24 -20 32 -11 8 -20 21 -20 30 0 9 -9 22 -20 30 -11 8 -20 22 -20 32 0
10 -4 18 -10 18 -5 0 -10 8 -10 18 0 10 -9 24 -20 32 -11 8 -20 21 -20 30 0 9
9 22 20 30 11 8 20 21 20 30 0 9 9 22 20 30 11 8 20 22 20 32 0 10 5 18 10 18
6 0 10 8 10 18 0 10 9 24 20 32 11 8 20 22 20 32 0 16 -10 18 -80 18 -73 0
-80 -2 -80 -20 0 -11 -4 -20 -10 -20 -5 0 -10 -8 -10 -18 0 -10 -9 -24 -20
-32 -11 -8 -20 -22 -20 -32 0 -10 -4 -18 -10 -18 -5 0 -10 -7 -10 -16 0 -20
-24 -44 -44 -44 -14 0 -16 27 -16 220 l0 220 -40 0 c-22 0 -40 -4 -40 -10z"/>
<path d="M4651 2274 c-7 -8 -10 -18 -6 -22 3 -3 11 0 16 8 8 11 12 12 16 3 8
-20 23 -15 23 7 0 24 -29 26 -49 4z"/>
<path d="M4700 2220 c0 -5 5 -10 10 -10 6 0 10 5 10 10 0 6 -4 10 -10 10 -5 0
-10 -4 -10 -10z"/>
<path d="M4620 2190 c0 -11 5 -20 10 -20 6 0 10 9 10 20 0 11 -4 20 -10 20 -5
0 -10 -9 -10 -20z"/>
<path d="M4720 2150 c0 -11 5 -20 10 -20 6 0 10 9 10 20 0 11 -4 20 -10 20 -5
0 -10 -9 -10 -20z"/>
<path d="M4600 2120 c0 -5 5 -10 10 -10 6 0 10 5 10 10 0 6 -4 10 -10 10 -5 0
-10 -4 -10 -10z"/>
<path d="M1320 2100 c0 -5 -18 -10 -40 -10 -22 0 -40 -4 -40 -10 0 -5 -7 -10
-15 -10 -25 0 -65 -46 -65 -75 0 -14 -4 -25 -10 -25 -6 0 -10 -50 -10 -130 0
-80 4 -130 10 -130 6 0 10 -7 10 -15 0 -26 66 -85 95 -85 14 0 25 -4 25 -10 0
-6 40 -10 100 -10 60 0 100 4 100 10 0 6 9 10 20 10 17 0 20 7 20 50 l0 50
-106 0 c-78 0 -109 4 -120 14 -10 11 -14 41 -14 116 0 94 2 103 25 125 22 23
32 25 110 25 50 0 85 -4 85 -10 0 -5 5 -10 10 -10 6 0 10 27 10 60 l0 60 -50
0 c-27 0 -50 5 -50 10 0 6 -22 10 -50 10 -27 0 -50 -4 -50 -10z"/>
<path d="M1760 2100 c0 -5 -18 -10 -40 -10 -22 0 -40 -4 -40 -10 0 -5 -7 -10
-16 -10 -8 0 -22 -6 -30 -14 -8 -8 -14 -22 -14 -30 0 -9 -4 -16 -10 -16 -5 0
-10 -13 -10 -30 0 -16 -4 -30 -10 -30 -6 0 -10 -37 -10 -90 0 -53 4 -90 10
-90 6 0 10 -18 10 -40 0 -22 5 -40 10 -40 6 0 10 -7 10 -16 0 -20 24 -44 44
-44 9 0 16 -4 16 -10 0 -5 9 -10 20 -10 11 0 20 -4 20 -10 0 -6 50 -10 130
-10 80 0 130 4 130 10 0 6 9 10 20 10 11 0 20 5 20 10 0 6 -4 10 -10 10 -5 0
-10 14 -10 30 0 17 5 30 10 30 6 0 10 5 10 10 0 6 -48 10 -125 10 -120 0 -127
1 -150 25 -14 13 -25 36 -25 50 l0 25 150 0 150 0 0 90 c0 53 -4 90 -10 90 -5
0 -10 7 -10 15 0 9 -16 31 -35 50 -29 30 -41 35 -80 35 -25 0 -45 5 -45 10 0
6 -18 10 -40 10 -22 0 -40 -4 -40 -10z m106 -104 c8 -8 14 -34 14 -60 l0 -46
-80 0 -80 0 0 45 c0 25 6 52 13 60 16 19 114 20 133 1z"/>
<path d="M2800 2100 c0 -5 -20 -10 -45 -10 -41 0 -50 -5 -90 -45 l-45 -44 0
-156 c0 -97 4 -155 10 -155 6 0 10 -7 10 -16 0 -20 24 -44 44 -44 9 0 16 -4
16 -10 0 -5 9 -10 20 -10 11 0 20 -4 20 -10 0 -6 37 -10 90 -10 53 0 90 4 90
10 0 6 11 10 25 10 29 0 95 59 95 85 0 8 5 15 10 15 6 0 10 50 10 130 0 80 -4
130 -10 130 -5 0 -10 11 -10 25 0 29 -40 75 -65 75 -8 0 -15 5 -15 10 0 6 -18
10 -40 10 -22 0 -40 5 -40 10 0 6 -18 10 -40 10 -22 0 -40 -4 -40 -10z m95
-135 c23 -22 25 -31 25 -125 0 -105 -9 -130 -44 -130 -9 0 -16 -4 -16 -10 0
-5 -9 -10 -20 -10 -11 0 -20 5 -20 10 0 6 -7 10 -16 10 -20 0 -44 24 -44 44 0
9 -4 16 -10 16 -6 0 -10 33 -10 80 0 47 4 80 10 80 6 0 10 7 10 15 0 28 24 44
68 45 33 0 49 -6 67 -25z"/>
<path d="M3300 2100 c0 -5 -18 -10 -40 -10 -22 0 -40 -4 -40 -10 0 -5 -9 -10
-20 -10 -13 0 -20 -7 -20 -18 0 -10 -9 -24 -20 -32 -12 -8 -20 -26 -20 -42 0
-15 -4 -28 -10 -28 -6 0 -10 -40 -10 -100 0 -60 4 -100 10 -100 6 0 10 -16 10
-35 0 -44 55 -105 95 -105 14 0 25 -4 25 -10 0 -6 37 -10 90 -10 53 0 90 4 90
10 0 6 11 10 25 10 40 0 95 61 95 105 0 19 5 35 10 35 6 0 10 40 10 100 0 60
-4 100 -10 100 -5 0 -10 14 -10 30 0 17 -4 30 -10 30 -5 0 -10 7 -10 16 0 20
-24 44 -44 44 -9 0 -16 5 -16 10 0 6 -18 10 -40 10 -22 0 -40 5 -40 10 0 6
-22 10 -50 10 -27 0 -50 -4 -50 -10z m115 -135 c23 -22 25 -32 25 -115 0 -90
0 -91 -35 -125 -19 -19 -44 -35 -55 -35 -11 0 -36 16 -55 35 -35 34 -35 35
-35 125 0 80 3 93 23 115 32 34 99 34 132 0z"/>
<path d="M5480 2100 c0 -5 5 -10 10 -10 6 0 10 5 10 10 0 6 -4 10 -10 10 -5 0
-10 -4 -10 -10z"/>
<path d="M700 2040 l0 -50 90 0 c53 0 90 -4 90 -10 0 -5 9 -10 20 -10 17 0 20
-7 20 -50 l0 -50 -100 0 c-60 0 -100 -4 -100 -10 0 -5 -7 -10 -16 -10 -20 0
-44 -24 -44 -44 0 -9 -4 -16 -10 -16 -6 0 -10 -27 -10 -60 0 -33 4 -60 10 -60
6 0 10 -7 10 -16 0 -20 24 -44 44 -44 9 0 16 -4 16 -10 0 -6 30 -10 70 -10 40
0 70 4 70 10 0 6 14 10 30 10 17 0 30 5 30 10 0 6 5 10 10 10 6 0 10 -9 10
-20 0 -18 7 -20 70 -20 40 0 70 4 70 10 0 6 -4 10 -10 10 -6 0 -10 73 -10 200
0 127 -4 200 -10 200 -5 0 -10 7 -10 16 0 20 -24 44 -44 44 -9 0 -16 5 -16 10
0 6 -53 10 -140 10 l-140 0 0 -50z m220 -300 l0 -50 -56 0 c-62 0 -84 14 -84
54 0 19 5 26 20 26 11 0 20 5 20 10 0 6 23 10 50 10 l50 0 0 -50z"/>
<path d="M4740 2080 c0 -5 5 -10 10 -10 6 0 10 5 10 10 0 6 -4 10 -10 10 -5 0
-10 -4 -10 -10z"/>
<path d="M5620 2080 c0 -5 5 -10 10 -10 6 0 10 5 10 10 0 6 -4 10 -10 10 -5 0
-10 -4 -10 -10z"/>
<path d="M4580 2060 c0 -5 5 -10 10 -10 6 0 10 5 10 10 0 6 -4 10 -10 10 -5 0
-10 -4 -10 -10z"/>
<path d="M5020 2060 c0 -5 5 -10 10 -10 6 0 10 5 10 10 0 6 -4 10 -10 10 -5 0
-10 -4 -10 -10z"/>
<path d="M5260 2000 c0 -27 5 -50 10 -50 6 0 10 23 10 50 0 28 -4 50 -10 50
-5 0 -10 -22 -10 -50z"/>
<path d="M5640 2040 c0 -5 5 -10 10 -10 6 0 10 5 10 10 0 6 -4 10 -10 10 -5 0
-10 -4 -10 -10z"/>
<path d="M4760 2010 c0 -11 5 -20 10 -20 6 0 10 9 10 20 0 11 -4 20 -10 20 -5
0 -10 -9 -10 -20z"/>
<path d="M5000 2020 c0 -5 5 -10 10 -10 6 0 10 5 10 10 0 6 -4 10 -10 10 -5 0
-10 -4 -10 -10z"/>
<path d="M4560 2000 c0 -5 5 -10 10 -10 6 0 10 5 10 10 0 6 -4 10 -10 10 -5 0
-10 -4 -10 -10z"/>
<path d="M5400 1990 c0 -11 5 -20 10 -20 6 0 10 9 10 20 0 11 -4 20 -10 20 -5
0 -10 -9 -10 -20z"/>
<path d="M4780 1950 c0 -11 5 -20 10 -20 6 0 10 9 10 20 0 11 -4 20 -10 20 -5
0 -10 -9 -10 -20z"/>
<path d="M4980 1840 c0 -80 4 -130 10 -130 6 0 10 50 10 130 0 80 -4 130 -10
130 -6 0 -10 -50 -10 -130z"/>
<path d="M4540 1930 c0 -11 5 -20 10 -20 6 0 10 9 10 20 0 11 -4 20 -10 20 -5
0 -10 -9 -10 -20z"/>
<path d="M5420 1940 c0 -5 5 -10 10 -10 6 0 10 5 10 10 0 6 -4 10 -10 10 -5 0
-10 -4 -10 -10z"/>
<path d="M4800 1890 c0 -11 5 -20 10 -20 6 0 10 9 10 20 0 11 -4 20 -10 20 -5
0 -10 -9 -10 -20z"/>
<path d="M4520 1851 c0 -22 -5 -41 -12 -44 -7 -2 -10 -8 -6 -12 4 -4 14 0 23
8 17 17 21 87 5 87 -5 0 -10 -18 -10 -39z"/>
<path d="M5480 1880 c0 -5 5 -10 10 -10 6 0 10 5 10 10 0 6 -4 10 -10 10 -5 0
-10 -4 -10 -10z"/>
<path d="M5520 1860 c0 -5 9 -10 20 -10 11 0 20 5 20 10 0 6 -9 10 -20 10 -11
0 -20 -4 -20 -10z"/>
<path d="M5580 1840 c0 -5 5 -10 10 -10 6 0 10 5 10 10 0 6 -4 10 -10 10 -5 0
-10 -4 -10 -10z"/>
<path d="M4820 1810 c0 -11 5 -20 10 -20 6 0 10 9 10 20 0 11 -4 20 -10 20 -5
0 -10 -9 -10 -20z"/>
<path d="M5620 1825 c0 -11 51 -57 57 -52 3 3 -6 17 -20 31 -25 25 -37 32 -37
21z"/>
<path d="M4840 1750 c0 -11 5 -20 10 -20 6 0 10 9 10 20 0 11 -4 20 -10 20 -5
0 -10 -9 -10 -20z"/>
<path d="M4480 1730 c0 -11 5 -20 10 -20 6 0 10 9 10 20 0 11 -4 20 -10 20 -5
0 -10 -9 -10 -20z"/>
<path d="M5260 1700 c0 -16 5 -30 10 -30 6 0 10 14 10 30 0 17 -4 30 -10 30
-5 0 -10 -13 -10 -30z"/>
<path d="M5400 1690 c0 -22 5 -40 10 -40 6 0 10 18 10 40 0 22 -4 40 -10 40
-5 0 -10 -18 -10 -40z"/>
<path d="M5680 1710 c0 -11 5 -20 10 -20 6 0 10 9 10 20 0 11 -4 20 -10 20 -5
0 -10 -9 -10 -20z"/>
<path d="M4860 1690 c0 -11 5 -20 10 -20 6 0 10 9 10 20 0 11 -4 20 -10 20 -5
0 -10 -9 -10 -20z"/>
<path d="M4460 1670 c0 -11 5 -20 10 -20 6 0 10 9 10 20 0 11 -4 20 -10 20 -5
0 -10 -9 -10 -20z"/>
<path d="M5000 1660 c0 -5 5 -10 10 -10 6 0 10 5 10 10 0 6 -4 10 -10 10 -5 0
-10 -4 -10 -10z"/>
<path d="M5260 1640 c0 -5 5 -10 10 -10 6 0 10 5 10 10 0 6 -4 10 -10 10 -5 0
-10 -4 -10 -10z"/>
<path d="M5660 1640 c0 -5 5 -10 10 -10 6 0 10 5 10 10 0 6 -4 10 -10 10 -5 0
-10 -4 -10 -10z"/>
<path d="M4200 1620 c0 -5 5 -10 10 -10 6 0 10 5 10 10 0 6 -4 10 -10 10 -5 0
-10 -4 -10 -10z"/>
<path d="M4440 1610 c0 -11 5 -20 10 -20 6 0 10 9 10 20 0 11 -4 20 -10 20 -5
0 -10 -9 -10 -20z"/>
<path d="M4880 1620 c0 -5 5 -10 10 -10 6 0 10 5 10 10 0 6 -4 10 -10 10 -5 0
-10 -4 -10 -10z"/>
<path d="M5020 1620 c0 -5 5 -10 10 -10 6 0 10 5 10 10 0 6 -4 10 -10 10 -5 0
-10 -4 -10 -10z"/>
<path d="M5420 1620 c0 -5 5 -10 10 -10 6 0 10 5 10 10 0 6 -4 10 -10 10 -5 0
-10 -4 -10 -10z"/>
<path d="M5480 1580 c0 -5 5 -10 10 -10 6 0 10 5 10 10 0 6 -4 10 -10 10 -5 0
-10 -4 -10 -10z"/>
</g>
</svg>
